<mxfile host="65bd71144e">
    <diagram id="okjpuvts9fqvl7M5XELN" name="Page-1">
        <mxGraphModel dx="1892" dy="2117" grid="1" gridSize="10" guides="1" tooltips="1" connect="1" arrows="1" fold="1" page="1" pageScale="1" pageWidth="850" pageHeight="1100" math="0" shadow="0">
            <root>
                <mxCell id="0"/>
                <mxCell id="1" parent="0"/>
                <mxCell id="2" value="esami" style="shape=table;startSize=30;container=1;collapsible=0;childLayout=tableLayout;fontStyle=1;align=center;pointerEvents=1;" vertex="1" parent="1">
                    <mxGeometry x="1290" y="520" width="430" height="246" as="geometry"/>
                </mxCell>
                <mxCell id="3" value="" style="shape=partialRectangle;html=1;whiteSpace=wrap;collapsible=0;dropTarget=0;pointerEvents=0;fillColor=none;top=0;left=0;bottom=0;right=0;points=[[0,0.5],[1,0.5]];portConstraint=eastwest;" vertex="1" parent="2">
                    <mxGeometry y="30" width="430" height="43" as="geometry"/>
                </mxCell>
                <mxCell id="4" value="id(int,not null,unique,autoincrement" style="shape=partialRectangle;html=1;whiteSpace=wrap;connectable=0;fillColor=none;top=0;left=0;bottom=0;right=0;overflow=hidden;pointerEvents=1;" vertex="1" parent="3">
                    <mxGeometry width="143" height="43" as="geometry">
                        <mxRectangle width="143" height="43" as="alternateBounds"/>
                    </mxGeometry>
                </mxCell>
                <mxCell id="5" value="&lt;span&gt;data&lt;/span&gt;" style="shape=partialRectangle;html=1;whiteSpace=wrap;connectable=0;fillColor=none;top=0;left=0;bottom=0;right=0;overflow=hidden;pointerEvents=1;" vertex="1" parent="3">
                    <mxGeometry x="143" width="144" height="43" as="geometry">
                        <mxRectangle width="144" height="43" as="alternateBounds"/>
                    </mxGeometry>
                </mxCell>
                <mxCell id="6" value="class(varchar(50), not null)" style="shape=partialRectangle;html=1;whiteSpace=wrap;connectable=0;fillColor=none;top=0;left=0;bottom=0;right=0;overflow=hidden;pointerEvents=1;" vertex="1" parent="3">
                    <mxGeometry x="287" width="143" height="43" as="geometry">
                        <mxRectangle width="143" height="43" as="alternateBounds"/>
                    </mxGeometry>
                </mxCell>
                <mxCell id="7" value="" style="shape=partialRectangle;html=1;whiteSpace=wrap;collapsible=0;dropTarget=0;pointerEvents=0;fillColor=none;top=0;left=0;bottom=0;right=0;points=[[0,0.5],[1,0.5]];portConstraint=eastwest;" vertex="1" parent="2">
                    <mxGeometry y="73" width="430" height="44" as="geometry"/>
                </mxCell>
                <mxCell id="8" value="1" style="shape=partialRectangle;html=1;whiteSpace=wrap;connectable=0;fillColor=none;top=0;left=0;bottom=0;right=0;overflow=hidden;pointerEvents=1;" vertex="1" parent="7">
                    <mxGeometry width="143" height="44" as="geometry">
                        <mxRectangle width="143" height="44" as="alternateBounds"/>
                    </mxGeometry>
                </mxCell>
                <mxCell id="9" value="12DIC22" style="shape=partialRectangle;html=1;whiteSpace=wrap;connectable=0;fillColor=none;top=0;left=0;bottom=0;right=0;overflow=hidden;pointerEvents=1;" vertex="1" parent="7">
                    <mxGeometry x="143" width="144" height="44" as="geometry">
                        <mxRectangle width="144" height="44" as="alternateBounds"/>
                    </mxGeometry>
                </mxCell>
                <mxCell id="10" value="1" style="shape=partialRectangle;html=1;whiteSpace=wrap;connectable=0;fillColor=none;top=0;left=0;bottom=0;right=0;overflow=hidden;pointerEvents=1;" vertex="1" parent="7">
                    <mxGeometry x="287" width="143" height="44" as="geometry">
                        <mxRectangle width="143" height="44" as="alternateBounds"/>
                    </mxGeometry>
                </mxCell>
                <mxCell id="11" value="" style="shape=partialRectangle;html=1;whiteSpace=wrap;collapsible=0;dropTarget=0;pointerEvents=0;fillColor=none;top=0;left=0;bottom=0;right=0;points=[[0,0.5],[1,0.5]];portConstraint=eastwest;" vertex="1" parent="2">
                    <mxGeometry y="117" width="430" height="43" as="geometry"/>
                </mxCell>
                <mxCell id="12" value="2" style="shape=partialRectangle;html=1;whiteSpace=wrap;connectable=0;fillColor=none;top=0;left=0;bottom=0;right=0;overflow=hidden;pointerEvents=1;" vertex="1" parent="11">
                    <mxGeometry width="143" height="43" as="geometry">
                        <mxRectangle width="143" height="43" as="alternateBounds"/>
                    </mxGeometry>
                </mxCell>
                <mxCell id="13" value="30DIC22" style="shape=partialRectangle;html=1;whiteSpace=wrap;connectable=0;fillColor=none;top=0;left=0;bottom=0;right=0;overflow=hidden;pointerEvents=1;" vertex="1" parent="11">
                    <mxGeometry x="143" width="144" height="43" as="geometry">
                        <mxRectangle width="144" height="43" as="alternateBounds"/>
                    </mxGeometry>
                </mxCell>
                <mxCell id="14" value="3" style="shape=partialRectangle;html=1;whiteSpace=wrap;connectable=0;fillColor=none;top=0;left=0;bottom=0;right=0;overflow=hidden;pointerEvents=1;" vertex="1" parent="11">
                    <mxGeometry x="287" width="143" height="43" as="geometry">
                        <mxRectangle width="143" height="43" as="alternateBounds"/>
                    </mxGeometry>
                </mxCell>
                <mxCell id="149" style="shape=partialRectangle;html=1;whiteSpace=wrap;collapsible=0;dropTarget=0;pointerEvents=0;fillColor=none;top=0;left=0;bottom=0;right=0;points=[[0,0.5],[1,0.5]];portConstraint=eastwest;" vertex="1" parent="2">
                    <mxGeometry y="160" width="430" height="43" as="geometry"/>
                </mxCell>
                <mxCell id="150" value="3" style="shape=partialRectangle;html=1;whiteSpace=wrap;connectable=0;fillColor=none;top=0;left=0;bottom=0;right=0;overflow=hidden;pointerEvents=1;" vertex="1" parent="149">
                    <mxGeometry width="143" height="43" as="geometry">
                        <mxRectangle width="143" height="43" as="alternateBounds"/>
                    </mxGeometry>
                </mxCell>
                <mxCell id="151" value="10GEN22" style="shape=partialRectangle;html=1;whiteSpace=wrap;connectable=0;fillColor=none;top=0;left=0;bottom=0;right=0;overflow=hidden;pointerEvents=1;" vertex="1" parent="149">
                    <mxGeometry x="143" width="144" height="43" as="geometry">
                        <mxRectangle width="144" height="43" as="alternateBounds"/>
                    </mxGeometry>
                </mxCell>
                <mxCell id="152" value="3" style="shape=partialRectangle;html=1;whiteSpace=wrap;connectable=0;fillColor=none;top=0;left=0;bottom=0;right=0;overflow=hidden;pointerEvents=1;" vertex="1" parent="149">
                    <mxGeometry x="287" width="143" height="43" as="geometry">
                        <mxRectangle width="143" height="43" as="alternateBounds"/>
                    </mxGeometry>
                </mxCell>
                <mxCell id="153" style="shape=partialRectangle;html=1;whiteSpace=wrap;collapsible=0;dropTarget=0;pointerEvents=0;fillColor=none;top=0;left=0;bottom=0;right=0;points=[[0,0.5],[1,0.5]];portConstraint=eastwest;" vertex="1" parent="2">
                    <mxGeometry y="203" width="430" height="43" as="geometry"/>
                </mxCell>
                <mxCell id="154" value="4" style="shape=partialRectangle;html=1;whiteSpace=wrap;connectable=0;fillColor=none;top=0;left=0;bottom=0;right=0;overflow=hidden;pointerEvents=1;" vertex="1" parent="153">
                    <mxGeometry width="143" height="43" as="geometry">
                        <mxRectangle width="143" height="43" as="alternateBounds"/>
                    </mxGeometry>
                </mxCell>
                <mxCell id="155" value="30GEN22" style="shape=partialRectangle;html=1;whiteSpace=wrap;connectable=0;fillColor=none;top=0;left=0;bottom=0;right=0;overflow=hidden;pointerEvents=1;" vertex="1" parent="153">
                    <mxGeometry x="143" width="144" height="43" as="geometry">
                        <mxRectangle width="144" height="43" as="alternateBounds"/>
                    </mxGeometry>
                </mxCell>
                <mxCell id="156" value="2" style="shape=partialRectangle;html=1;whiteSpace=wrap;connectable=0;fillColor=none;top=0;left=0;bottom=0;right=0;overflow=hidden;pointerEvents=1;" vertex="1" parent="153">
                    <mxGeometry x="287" width="143" height="43" as="geometry">
                        <mxRectangle width="143" height="43" as="alternateBounds"/>
                    </mxGeometry>
                </mxCell>
                <mxCell id="15" value="dipartimenti" style="shape=table;startSize=30;container=1;collapsible=0;childLayout=tableLayout;fontStyle=1;align=center;pointerEvents=1;" vertex="1" parent="1">
                    <mxGeometry x="170" y="50" width="233" height="190" as="geometry"/>
                </mxCell>
                <mxCell id="16" value="" style="shape=partialRectangle;html=1;whiteSpace=wrap;collapsible=0;dropTarget=0;pointerEvents=0;fillColor=none;top=0;left=0;bottom=0;right=0;points=[[0,0.5],[1,0.5]];portConstraint=eastwest;" vertex="1" parent="15">
                    <mxGeometry y="30" width="233" height="40" as="geometry"/>
                </mxCell>
                <mxCell id="17" value="&lt;span&gt;id(int,not null,unique,autoincrement&lt;/span&gt;" style="shape=partialRectangle;html=1;whiteSpace=wrap;connectable=0;fillColor=none;top=0;left=0;bottom=0;right=0;overflow=hidden;pointerEvents=1;" vertex="1" parent="16">
                    <mxGeometry width="117" height="40" as="geometry">
                        <mxRectangle width="117" height="40" as="alternateBounds"/>
                    </mxGeometry>
                </mxCell>
                <mxCell id="18" value="nome(varchar(50),not null)" style="shape=partialRectangle;html=1;whiteSpace=wrap;connectable=0;fillColor=none;top=0;left=0;bottom=0;right=0;overflow=hidden;pointerEvents=1;" vertex="1" parent="16">
                    <mxGeometry x="117" width="116" height="40" as="geometry">
                        <mxRectangle width="116" height="40" as="alternateBounds"/>
                    </mxGeometry>
                </mxCell>
                <mxCell id="20" value="" style="shape=partialRectangle;html=1;whiteSpace=wrap;collapsible=0;dropTarget=0;pointerEvents=0;fillColor=none;top=0;left=0;bottom=0;right=0;points=[[0,0.5],[1,0.5]];portConstraint=eastwest;" vertex="1" parent="15">
                    <mxGeometry y="70" width="233" height="40" as="geometry"/>
                </mxCell>
                <mxCell id="21" value="1" style="shape=partialRectangle;html=1;whiteSpace=wrap;connectable=0;fillColor=none;top=0;left=0;bottom=0;right=0;overflow=hidden;pointerEvents=1;" vertex="1" parent="20">
                    <mxGeometry width="117" height="40" as="geometry">
                        <mxRectangle width="117" height="40" as="alternateBounds"/>
                    </mxGeometry>
                </mxCell>
                <mxCell id="22" value="lettere" style="shape=partialRectangle;html=1;whiteSpace=wrap;connectable=0;fillColor=none;top=0;left=0;bottom=0;right=0;overflow=hidden;pointerEvents=1;" vertex="1" parent="20">
                    <mxGeometry x="117" width="116" height="40" as="geometry">
                        <mxRectangle width="116" height="40" as="alternateBounds"/>
                    </mxGeometry>
                </mxCell>
                <mxCell id="24" value="" style="shape=partialRectangle;html=1;whiteSpace=wrap;collapsible=0;dropTarget=0;pointerEvents=0;fillColor=none;top=0;left=0;bottom=0;right=0;points=[[0,0.5],[1,0.5]];portConstraint=eastwest;" vertex="1" parent="15">
                    <mxGeometry y="110" width="233" height="40" as="geometry"/>
                </mxCell>
                <mxCell id="25" value="2" style="shape=partialRectangle;html=1;whiteSpace=wrap;connectable=0;fillColor=none;top=0;left=0;bottom=0;right=0;overflow=hidden;pointerEvents=1;" vertex="1" parent="24">
                    <mxGeometry width="117" height="40" as="geometry">
                        <mxRectangle width="117" height="40" as="alternateBounds"/>
                    </mxGeometry>
                </mxCell>
                <mxCell id="26" value="filosofia" style="shape=partialRectangle;html=1;whiteSpace=wrap;connectable=0;fillColor=none;top=0;left=0;bottom=0;right=0;overflow=hidden;pointerEvents=1;" vertex="1" parent="24">
                    <mxGeometry x="117" width="116" height="40" as="geometry">
                        <mxRectangle width="116" height="40" as="alternateBounds"/>
                    </mxGeometry>
                </mxCell>
                <mxCell id="53" style="shape=partialRectangle;html=1;whiteSpace=wrap;collapsible=0;dropTarget=0;pointerEvents=0;fillColor=none;top=0;left=0;bottom=0;right=0;points=[[0,0.5],[1,0.5]];portConstraint=eastwest;" vertex="1" parent="15">
                    <mxGeometry y="150" width="233" height="40" as="geometry"/>
                </mxCell>
                <mxCell id="54" value="3" style="shape=partialRectangle;html=1;whiteSpace=wrap;connectable=0;fillColor=none;top=0;left=0;bottom=0;right=0;overflow=hidden;pointerEvents=1;" vertex="1" parent="53">
                    <mxGeometry width="117" height="40" as="geometry">
                        <mxRectangle width="117" height="40" as="alternateBounds"/>
                    </mxGeometry>
                </mxCell>
                <mxCell id="55" value="informatica" style="shape=partialRectangle;html=1;whiteSpace=wrap;connectable=0;fillColor=none;top=0;left=0;bottom=0;right=0;overflow=hidden;pointerEvents=1;" vertex="1" parent="53">
                    <mxGeometry x="117" width="116" height="40" as="geometry">
                        <mxRectangle width="116" height="40" as="alternateBounds"/>
                    </mxGeometry>
                </mxCell>
                <mxCell id="28" value="corsi di laurea" style="shape=table;startSize=30;container=1;collapsible=0;childLayout=tableLayout;fontStyle=1;align=center;pointerEvents=1;" vertex="1" parent="1">
                    <mxGeometry x="620" y="30" width="734" height="244" as="geometry"/>
                </mxCell>
                <mxCell id="29" value="" style="shape=partialRectangle;html=1;whiteSpace=wrap;collapsible=0;dropTarget=0;pointerEvents=0;fillColor=none;top=0;left=0;bottom=0;right=0;points=[[0,0.5],[1,0.5]];portConstraint=eastwest;" vertex="1" parent="28">
                    <mxGeometry y="30" width="734" height="53" as="geometry"/>
                </mxCell>
                <mxCell id="30" value="&lt;span&gt;id(int,not null,unique,autoincrement&lt;/span&gt;" style="shape=partialRectangle;html=1;whiteSpace=wrap;connectable=0;fillColor=none;top=0;left=0;bottom=0;right=0;overflow=hidden;pointerEvents=1;" vertex="1" parent="29">
                    <mxGeometry width="184" height="53" as="geometry">
                        <mxRectangle width="184" height="53" as="alternateBounds"/>
                    </mxGeometry>
                </mxCell>
                <mxCell id="31" value="&lt;span&gt;nome(varchar(50),not null)&lt;/span&gt;" style="shape=partialRectangle;html=1;whiteSpace=wrap;connectable=0;fillColor=none;top=0;left=0;bottom=0;right=0;overflow=hidden;pointerEvents=1;" vertex="1" parent="29">
                    <mxGeometry x="184" width="182" height="53" as="geometry">
                        <mxRectangle width="182" height="53" as="alternateBounds"/>
                    </mxGeometry>
                </mxCell>
                <mxCell id="32" value="classe(varchar(50), not null)" style="shape=partialRectangle;html=1;whiteSpace=wrap;connectable=0;fillColor=none;top=0;left=0;bottom=0;right=0;overflow=hidden;pointerEvents=1;" vertex="1" parent="29">
                    <mxGeometry x="366" width="184" height="53" as="geometry">
                        <mxRectangle width="184" height="53" as="alternateBounds"/>
                    </mxGeometry>
                </mxCell>
                <mxCell id="45" value="dipartimento_id(FK)" style="shape=partialRectangle;html=1;whiteSpace=wrap;connectable=0;fillColor=none;top=0;left=0;bottom=0;right=0;overflow=hidden;pointerEvents=1;" vertex="1" parent="29">
                    <mxGeometry x="550" width="184" height="53" as="geometry">
                        <mxRectangle width="184" height="53" as="alternateBounds"/>
                    </mxGeometry>
                </mxCell>
                <mxCell id="33" value="" style="shape=partialRectangle;html=1;whiteSpace=wrap;collapsible=0;dropTarget=0;pointerEvents=0;fillColor=none;top=0;left=0;bottom=0;right=0;points=[[0,0.5],[1,0.5]];portConstraint=eastwest;" vertex="1" parent="28">
                    <mxGeometry y="83" width="734" height="54" as="geometry"/>
                </mxCell>
                <mxCell id="34" value="1" style="shape=partialRectangle;html=1;whiteSpace=wrap;connectable=0;fillColor=none;top=0;left=0;bottom=0;right=0;overflow=hidden;pointerEvents=1;" vertex="1" parent="33">
                    <mxGeometry width="184" height="54" as="geometry">
                        <mxRectangle width="184" height="54" as="alternateBounds"/>
                    </mxGeometry>
                </mxCell>
                <mxCell id="35" value="civiltà e lettere classiche" style="shape=partialRectangle;html=1;whiteSpace=wrap;connectable=0;fillColor=none;top=0;left=0;bottom=0;right=0;overflow=hidden;pointerEvents=1;" vertex="1" parent="33">
                    <mxGeometry x="184" width="182" height="54" as="geometry">
                        <mxRectangle width="182" height="54" as="alternateBounds"/>
                    </mxGeometry>
                </mxCell>
                <mxCell id="36" value="A4" style="shape=partialRectangle;html=1;whiteSpace=wrap;connectable=0;fillColor=none;top=0;left=0;bottom=0;right=0;overflow=hidden;pointerEvents=1;" vertex="1" parent="33">
                    <mxGeometry x="366" width="184" height="54" as="geometry">
                        <mxRectangle width="184" height="54" as="alternateBounds"/>
                    </mxGeometry>
                </mxCell>
                <mxCell id="46" value="1" style="shape=partialRectangle;html=1;whiteSpace=wrap;connectable=0;fillColor=none;top=0;left=0;bottom=0;right=0;overflow=hidden;pointerEvents=1;" vertex="1" parent="33">
                    <mxGeometry x="550" width="184" height="54" as="geometry">
                        <mxRectangle width="184" height="54" as="alternateBounds"/>
                    </mxGeometry>
                </mxCell>
                <mxCell id="48" style="shape=partialRectangle;html=1;whiteSpace=wrap;collapsible=0;dropTarget=0;pointerEvents=0;fillColor=none;top=0;left=0;bottom=0;right=0;points=[[0,0.5],[1,0.5]];portConstraint=eastwest;" vertex="1" parent="28">
                    <mxGeometry y="137" width="734" height="54" as="geometry"/>
                </mxCell>
                <mxCell id="49" value="2" style="shape=partialRectangle;html=1;whiteSpace=wrap;connectable=0;fillColor=none;top=0;left=0;bottom=0;right=0;overflow=hidden;pointerEvents=1;" vertex="1" parent="48">
                    <mxGeometry width="184" height="54" as="geometry">
                        <mxRectangle width="184" height="54" as="alternateBounds"/>
                    </mxGeometry>
                </mxCell>
                <mxCell id="50" value="informatica" style="shape=partialRectangle;html=1;whiteSpace=wrap;connectable=0;fillColor=none;top=0;left=0;bottom=0;right=0;overflow=hidden;pointerEvents=1;" vertex="1" parent="48">
                    <mxGeometry x="184" width="182" height="54" as="geometry">
                        <mxRectangle width="182" height="54" as="alternateBounds"/>
                    </mxGeometry>
                </mxCell>
                <mxCell id="51" value="B6" style="shape=partialRectangle;html=1;whiteSpace=wrap;connectable=0;fillColor=none;top=0;left=0;bottom=0;right=0;overflow=hidden;pointerEvents=1;" vertex="1" parent="48">
                    <mxGeometry x="366" width="184" height="54" as="geometry">
                        <mxRectangle width="184" height="54" as="alternateBounds"/>
                    </mxGeometry>
                </mxCell>
                <mxCell id="52" value="3" style="shape=partialRectangle;html=1;whiteSpace=wrap;connectable=0;fillColor=none;top=0;left=0;bottom=0;right=0;overflow=hidden;pointerEvents=1;" vertex="1" parent="48">
                    <mxGeometry x="550" width="184" height="54" as="geometry">
                        <mxRectangle width="184" height="54" as="alternateBounds"/>
                    </mxGeometry>
                </mxCell>
                <mxCell id="37" value="" style="shape=partialRectangle;html=1;whiteSpace=wrap;collapsible=0;dropTarget=0;pointerEvents=0;fillColor=none;top=0;left=0;bottom=0;right=0;points=[[0,0.5],[1,0.5]];portConstraint=eastwest;" vertex="1" parent="28">
                    <mxGeometry y="191" width="734" height="53" as="geometry"/>
                </mxCell>
                <mxCell id="38" value="3" style="shape=partialRectangle;html=1;whiteSpace=wrap;connectable=0;fillColor=none;top=0;left=0;bottom=0;right=0;overflow=hidden;pointerEvents=1;" vertex="1" parent="37">
                    <mxGeometry width="184" height="53" as="geometry">
                        <mxRectangle width="184" height="53" as="alternateBounds"/>
                    </mxGeometry>
                </mxCell>
                <mxCell id="39" value="ingegneria" style="shape=partialRectangle;html=1;whiteSpace=wrap;connectable=0;fillColor=none;top=0;left=0;bottom=0;right=0;overflow=hidden;pointerEvents=1;" vertex="1" parent="37">
                    <mxGeometry x="184" width="182" height="53" as="geometry">
                        <mxRectangle width="182" height="53" as="alternateBounds"/>
                    </mxGeometry>
                </mxCell>
                <mxCell id="40" value="F12" style="shape=partialRectangle;html=1;whiteSpace=wrap;connectable=0;fillColor=none;top=0;left=0;bottom=0;right=0;overflow=hidden;pointerEvents=1;" vertex="1" parent="37">
                    <mxGeometry x="366" width="184" height="53" as="geometry">
                        <mxRectangle width="184" height="53" as="alternateBounds"/>
                    </mxGeometry>
                </mxCell>
                <mxCell id="47" value="3" style="shape=partialRectangle;html=1;whiteSpace=wrap;connectable=0;fillColor=none;top=0;left=0;bottom=0;right=0;overflow=hidden;pointerEvents=1;" vertex="1" parent="37">
                    <mxGeometry x="550" width="184" height="53" as="geometry">
                        <mxRectangle width="184" height="53" as="alternateBounds"/>
                    </mxGeometry>
                </mxCell>
                <mxCell id="41" value="" style="html=1;whiteSpace=wrap;aspect=fixed;shape=isoRectangle;" vertex="1" parent="1">
                    <mxGeometry x="480" y="98" width="90" height="54" as="geometry"/>
                </mxCell>
                <mxCell id="43" value="" style="edgeStyle=elbowEdgeStyle;elbow=horizontal;endArrow=classic;html=1;entryX=0.024;entryY=0.526;entryDx=0;entryDy=0;entryPerimeter=0;" edge="1" parent="1" target="41">
                    <mxGeometry width="50" height="50" relative="1" as="geometry">
                        <mxPoint x="410" y="170" as="sourcePoint"/>
                        <mxPoint x="460" y="120" as="targetPoint"/>
                        <Array as="points">
                            <mxPoint x="430" y="140"/>
                        </Array>
                    </mxGeometry>
                </mxCell>
                <mxCell id="44" value="" style="edgeStyle=elbowEdgeStyle;elbow=horizontal;endArrow=classic;html=1;entryX=0.99;entryY=0.416;entryDx=0;entryDy=0;entryPerimeter=0;exitX=-0.008;exitY=0.711;exitDx=0;exitDy=0;exitPerimeter=0;" edge="1" parent="1" source="33" target="41">
                    <mxGeometry width="50" height="50" relative="1" as="geometry">
                        <mxPoint x="560" y="163.6" as="sourcePoint"/>
                        <mxPoint x="632.1599999999999" y="120.00399999999999" as="targetPoint"/>
                        <Array as="points">
                            <mxPoint x="580" y="133.6"/>
                        </Array>
                    </mxGeometry>
                </mxCell>
                <mxCell id="57" value="1" style="text;html=1;align=center;verticalAlign=middle;resizable=0;points=[];autosize=1;strokeColor=none;fillColor=none;" vertex="1" parent="1">
                    <mxGeometry x="420" y="90" width="20" height="20" as="geometry"/>
                </mxCell>
                <mxCell id="58" value="N" style="text;html=1;align=center;verticalAlign=middle;resizable=0;points=[];autosize=1;strokeColor=none;fillColor=none;" vertex="1" parent="1">
                    <mxGeometry x="570" y="90" width="20" height="20" as="geometry"/>
                </mxCell>
                <mxCell id="59" value="corsi" style="shape=table;startSize=30;container=1;collapsible=0;childLayout=tableLayout;fontStyle=1;align=center;pointerEvents=1;" vertex="1" parent="1">
                    <mxGeometry x="1590" y="60" width="480" height="257" as="geometry"/>
                </mxCell>
                <mxCell id="60" value="" style="shape=partialRectangle;html=1;whiteSpace=wrap;collapsible=0;dropTarget=0;pointerEvents=0;fillColor=none;top=0;left=0;bottom=0;right=0;points=[[0,0.5],[1,0.5]];portConstraint=eastwest;" vertex="1" parent="59">
                    <mxGeometry y="30" width="480" height="57" as="geometry"/>
                </mxCell>
                <mxCell id="61" value="&lt;span&gt;id(int,not null,unique,autoincrement&lt;/span&gt;" style="shape=partialRectangle;html=1;whiteSpace=wrap;connectable=0;fillColor=none;top=0;left=0;bottom=0;right=0;overflow=hidden;pointerEvents=1;" vertex="1" parent="60">
                    <mxGeometry width="160" height="57" as="geometry">
                        <mxRectangle width="160" height="57" as="alternateBounds"/>
                    </mxGeometry>
                </mxCell>
                <mxCell id="62" value="nome (varchar(50), not null)" style="shape=partialRectangle;html=1;whiteSpace=wrap;connectable=0;fillColor=none;top=0;left=0;bottom=0;right=0;overflow=hidden;pointerEvents=1;" vertex="1" parent="60">
                    <mxGeometry x="160" width="160" height="57" as="geometry">
                        <mxRectangle width="160" height="57" as="alternateBounds"/>
                    </mxGeometry>
                </mxCell>
                <mxCell id="79" value="corsi_laurea_id(FK)" style="shape=partialRectangle;html=1;whiteSpace=wrap;connectable=0;fillColor=none;top=0;left=0;bottom=0;right=0;overflow=hidden;pointerEvents=1;" vertex="1" parent="60">
                    <mxGeometry x="320" width="160" height="57" as="geometry">
                        <mxRectangle width="160" height="57" as="alternateBounds"/>
                    </mxGeometry>
                </mxCell>
                <mxCell id="64" value="" style="shape=partialRectangle;html=1;whiteSpace=wrap;collapsible=0;dropTarget=0;pointerEvents=0;fillColor=none;top=0;left=0;bottom=0;right=0;points=[[0,0.5],[1,0.5]];portConstraint=eastwest;" vertex="1" parent="59">
                    <mxGeometry y="87" width="480" height="56" as="geometry"/>
                </mxCell>
                <mxCell id="65" value="1" style="shape=partialRectangle;html=1;whiteSpace=wrap;connectable=0;fillColor=none;top=0;left=0;bottom=0;right=0;overflow=hidden;pointerEvents=1;" vertex="1" parent="64">
                    <mxGeometry width="160" height="56" as="geometry">
                        <mxRectangle width="160" height="56" as="alternateBounds"/>
                    </mxGeometry>
                </mxCell>
                <mxCell id="66" value="letteratura latina" style="shape=partialRectangle;html=1;whiteSpace=wrap;connectable=0;fillColor=none;top=0;left=0;bottom=0;right=0;overflow=hidden;pointerEvents=1;" vertex="1" parent="64">
                    <mxGeometry x="160" width="160" height="56" as="geometry">
                        <mxRectangle width="160" height="56" as="alternateBounds"/>
                    </mxGeometry>
                </mxCell>
                <mxCell id="80" value="1" style="shape=partialRectangle;html=1;whiteSpace=wrap;connectable=0;fillColor=none;top=0;left=0;bottom=0;right=0;overflow=hidden;pointerEvents=1;" vertex="1" parent="64">
                    <mxGeometry x="320" width="160" height="56" as="geometry">
                        <mxRectangle width="160" height="56" as="alternateBounds"/>
                    </mxGeometry>
                </mxCell>
                <mxCell id="68" value="" style="shape=partialRectangle;html=1;whiteSpace=wrap;collapsible=0;dropTarget=0;pointerEvents=0;fillColor=none;top=0;left=0;bottom=0;right=0;points=[[0,0.5],[1,0.5]];portConstraint=eastwest;" vertex="1" parent="59">
                    <mxGeometry y="143" width="480" height="57" as="geometry"/>
                </mxCell>
                <mxCell id="69" value="2" style="shape=partialRectangle;html=1;whiteSpace=wrap;connectable=0;fillColor=none;top=0;left=0;bottom=0;right=0;overflow=hidden;pointerEvents=1;" vertex="1" parent="68">
                    <mxGeometry width="160" height="57" as="geometry">
                        <mxRectangle width="160" height="57" as="alternateBounds"/>
                    </mxGeometry>
                </mxCell>
                <mxCell id="70" value="sistemi operativi 1" style="shape=partialRectangle;html=1;whiteSpace=wrap;connectable=0;fillColor=none;top=0;left=0;bottom=0;right=0;overflow=hidden;pointerEvents=1;" vertex="1" parent="68">
                    <mxGeometry x="160" width="160" height="57" as="geometry">
                        <mxRectangle width="160" height="57" as="alternateBounds"/>
                    </mxGeometry>
                </mxCell>
                <mxCell id="81" value="2" style="shape=partialRectangle;html=1;whiteSpace=wrap;connectable=0;fillColor=none;top=0;left=0;bottom=0;right=0;overflow=hidden;pointerEvents=1;" vertex="1" parent="68">
                    <mxGeometry x="320" width="160" height="57" as="geometry">
                        <mxRectangle width="160" height="57" as="alternateBounds"/>
                    </mxGeometry>
                </mxCell>
                <mxCell id="82" style="shape=partialRectangle;html=1;whiteSpace=wrap;collapsible=0;dropTarget=0;pointerEvents=0;fillColor=none;top=0;left=0;bottom=0;right=0;points=[[0,0.5],[1,0.5]];portConstraint=eastwest;" vertex="1" parent="59">
                    <mxGeometry y="200" width="480" height="57" as="geometry"/>
                </mxCell>
                <mxCell id="83" value="3" style="shape=partialRectangle;html=1;whiteSpace=wrap;connectable=0;fillColor=none;top=0;left=0;bottom=0;right=0;overflow=hidden;pointerEvents=1;" vertex="1" parent="82">
                    <mxGeometry width="160" height="57" as="geometry">
                        <mxRectangle width="160" height="57" as="alternateBounds"/>
                    </mxGeometry>
                </mxCell>
                <mxCell id="84" value="Analisi matematica" style="shape=partialRectangle;html=1;whiteSpace=wrap;connectable=0;fillColor=none;top=0;left=0;bottom=0;right=0;overflow=hidden;pointerEvents=1;" vertex="1" parent="82">
                    <mxGeometry x="160" width="160" height="57" as="geometry">
                        <mxRectangle width="160" height="57" as="alternateBounds"/>
                    </mxGeometry>
                </mxCell>
                <mxCell id="85" value="3" style="shape=partialRectangle;html=1;whiteSpace=wrap;connectable=0;fillColor=none;top=0;left=0;bottom=0;right=0;overflow=hidden;pointerEvents=1;" vertex="1" parent="82">
                    <mxGeometry x="320" width="160" height="57" as="geometry">
                        <mxRectangle width="160" height="57" as="alternateBounds"/>
                    </mxGeometry>
                </mxCell>
                <mxCell id="73" value="" style="rhombus;whiteSpace=wrap;html=1;" vertex="1" parent="1">
                    <mxGeometry x="1440" y="130" width="80" height="80" as="geometry"/>
                </mxCell>
                <mxCell id="75" value="" style="edgeStyle=elbowEdgeStyle;elbow=horizontal;endArrow=classic;html=1;entryX=0;entryY=0.5;entryDx=0;entryDy=0;" edge="1" parent="1" target="73">
                    <mxGeometry width="50" height="50" relative="1" as="geometry">
                        <mxPoint x="1354" y="220" as="sourcePoint"/>
                        <mxPoint x="1404" y="170" as="targetPoint"/>
                    </mxGeometry>
                </mxCell>
                <mxCell id="76" value="" style="edgeStyle=elbowEdgeStyle;elbow=horizontal;endArrow=classic;html=1;entryX=1;entryY=0.5;entryDx=0;entryDy=0;exitX=0;exitY=0.5;exitDx=0;exitDy=0;" edge="1" parent="1" source="64" target="73">
                    <mxGeometry width="50" height="50" relative="1" as="geometry">
                        <mxPoint x="1504" y="210" as="sourcePoint"/>
                        <mxPoint x="1590" y="160" as="targetPoint"/>
                    </mxGeometry>
                </mxCell>
                <mxCell id="77" value="1" style="text;html=1;align=center;verticalAlign=middle;resizable=0;points=[];autosize=1;strokeColor=none;fillColor=none;" vertex="1" parent="1">
                    <mxGeometry x="1410" y="110" width="20" height="20" as="geometry"/>
                </mxCell>
                <mxCell id="78" value="N" style="text;html=1;align=center;verticalAlign=middle;resizable=0;points=[];autosize=1;strokeColor=none;fillColor=none;" vertex="1" parent="1">
                    <mxGeometry x="1550" y="120" width="20" height="20" as="geometry"/>
                </mxCell>
                <mxCell id="86" value="inseganti" style="shape=table;startSize=30;container=1;collapsible=0;childLayout=tableLayout;fontStyle=1;align=center;pointerEvents=1;" vertex="1" parent="1">
                    <mxGeometry x="2340" y="140" width="573" height="160" as="geometry"/>
                </mxCell>
                <mxCell id="87" value="" style="shape=partialRectangle;html=1;whiteSpace=wrap;collapsible=0;dropTarget=0;pointerEvents=0;fillColor=none;top=0;left=0;bottom=0;right=0;points=[[0,0.5],[1,0.5]];portConstraint=eastwest;" vertex="1" parent="86">
                    <mxGeometry y="30" width="573" height="43" as="geometry"/>
                </mxCell>
                <mxCell id="88" value="id(int,not null,unique,autoincrement" style="shape=partialRectangle;html=1;whiteSpace=wrap;connectable=0;fillColor=none;top=0;left=0;bottom=0;right=0;overflow=hidden;pointerEvents=1;" vertex="1" parent="87">
                    <mxGeometry width="143" height="43" as="geometry">
                        <mxRectangle width="143" height="43" as="alternateBounds"/>
                    </mxGeometry>
                </mxCell>
                <mxCell id="89" value="nome (varchar(50), not null)" style="shape=partialRectangle;html=1;whiteSpace=wrap;connectable=0;fillColor=none;top=0;left=0;bottom=0;right=0;overflow=hidden;pointerEvents=1;" vertex="1" parent="87">
                    <mxGeometry x="143" width="144" height="43" as="geometry">
                        <mxRectangle width="144" height="43" as="alternateBounds"/>
                    </mxGeometry>
                </mxCell>
                <mxCell id="90" value="class(varchar(50), not null)" style="shape=partialRectangle;html=1;whiteSpace=wrap;connectable=0;fillColor=none;top=0;left=0;bottom=0;right=0;overflow=hidden;pointerEvents=1;" vertex="1" parent="87">
                    <mxGeometry x="287" width="143" height="43" as="geometry">
                        <mxRectangle width="143" height="43" as="alternateBounds"/>
                    </mxGeometry>
                </mxCell>
                <mxCell id="99" value="&lt;span&gt;email(varchar(50), not null)&lt;/span&gt;" style="shape=partialRectangle;html=1;whiteSpace=wrap;connectable=0;fillColor=none;top=0;left=0;bottom=0;right=0;overflow=hidden;pointerEvents=1;" vertex="1" parent="87">
                    <mxGeometry x="430" width="143" height="43" as="geometry">
                        <mxRectangle width="143" height="43" as="alternateBounds"/>
                    </mxGeometry>
                </mxCell>
                <mxCell id="91" value="" style="shape=partialRectangle;html=1;whiteSpace=wrap;collapsible=0;dropTarget=0;pointerEvents=0;fillColor=none;top=0;left=0;bottom=0;right=0;points=[[0,0.5],[1,0.5]];portConstraint=eastwest;" vertex="1" parent="86">
                    <mxGeometry y="73" width="573" height="44" as="geometry"/>
                </mxCell>
                <mxCell id="92" value="1" style="shape=partialRectangle;html=1;whiteSpace=wrap;connectable=0;fillColor=none;top=0;left=0;bottom=0;right=0;overflow=hidden;pointerEvents=1;" vertex="1" parent="91">
                    <mxGeometry width="143" height="44" as="geometry">
                        <mxRectangle width="143" height="44" as="alternateBounds"/>
                    </mxGeometry>
                </mxCell>
                <mxCell id="93" value="alessandro" style="shape=partialRectangle;html=1;whiteSpace=wrap;connectable=0;fillColor=none;top=0;left=0;bottom=0;right=0;overflow=hidden;pointerEvents=1;" vertex="1" parent="91">
                    <mxGeometry x="143" width="144" height="44" as="geometry">
                        <mxRectangle width="144" height="44" as="alternateBounds"/>
                    </mxGeometry>
                </mxCell>
                <mxCell id="94" value="lodigiani" style="shape=partialRectangle;html=1;whiteSpace=wrap;connectable=0;fillColor=none;top=0;left=0;bottom=0;right=0;overflow=hidden;pointerEvents=1;" vertex="1" parent="91">
                    <mxGeometry x="287" width="143" height="44" as="geometry">
                        <mxRectangle width="143" height="44" as="alternateBounds"/>
                    </mxGeometry>
                </mxCell>
                <mxCell id="100" value="test@test.it" style="shape=partialRectangle;html=1;whiteSpace=wrap;connectable=0;fillColor=none;top=0;left=0;bottom=0;right=0;overflow=hidden;pointerEvents=1;" vertex="1" parent="91">
                    <mxGeometry x="430" width="143" height="44" as="geometry">
                        <mxRectangle width="143" height="44" as="alternateBounds"/>
                    </mxGeometry>
                </mxCell>
                <mxCell id="95" value="" style="shape=partialRectangle;html=1;whiteSpace=wrap;collapsible=0;dropTarget=0;pointerEvents=0;fillColor=none;top=0;left=0;bottom=0;right=0;points=[[0,0.5],[1,0.5]];portConstraint=eastwest;" vertex="1" parent="86">
                    <mxGeometry y="117" width="573" height="43" as="geometry"/>
                </mxCell>
                <mxCell id="96" value="2" style="shape=partialRectangle;html=1;whiteSpace=wrap;connectable=0;fillColor=none;top=0;left=0;bottom=0;right=0;overflow=hidden;pointerEvents=1;" vertex="1" parent="95">
                    <mxGeometry width="143" height="43" as="geometry">
                        <mxRectangle width="143" height="43" as="alternateBounds"/>
                    </mxGeometry>
                </mxCell>
                <mxCell id="97" value="marco" style="shape=partialRectangle;html=1;whiteSpace=wrap;connectable=0;fillColor=none;top=0;left=0;bottom=0;right=0;overflow=hidden;pointerEvents=1;" vertex="1" parent="95">
                    <mxGeometry x="143" width="144" height="43" as="geometry">
                        <mxRectangle width="144" height="43" as="alternateBounds"/>
                    </mxGeometry>
                </mxCell>
                <mxCell id="98" value="rossi" style="shape=partialRectangle;html=1;whiteSpace=wrap;connectable=0;fillColor=none;top=0;left=0;bottom=0;right=0;overflow=hidden;pointerEvents=1;" vertex="1" parent="95">
                    <mxGeometry x="287" width="143" height="43" as="geometry">
                        <mxRectangle width="143" height="43" as="alternateBounds"/>
                    </mxGeometry>
                </mxCell>
                <mxCell id="101" value="&lt;span&gt;test@test.it&lt;/span&gt;" style="shape=partialRectangle;html=1;whiteSpace=wrap;connectable=0;fillColor=none;top=0;left=0;bottom=0;right=0;overflow=hidden;pointerEvents=1;" vertex="1" parent="95">
                    <mxGeometry x="430" width="143" height="43" as="geometry">
                        <mxRectangle width="143" height="43" as="alternateBounds"/>
                    </mxGeometry>
                </mxCell>
                <mxCell id="102" value="pivot" style="rhombus;whiteSpace=wrap;html=1;" vertex="1" parent="1">
                    <mxGeometry x="2170" y="190" width="80" height="80" as="geometry"/>
                </mxCell>
                <mxCell id="103" value="" style="edgeStyle=elbowEdgeStyle;elbow=horizontal;endArrow=classic;html=1;entryX=0;entryY=0.5;entryDx=0;entryDy=0;exitX=1;exitY=0.5;exitDx=0;exitDy=0;" edge="1" parent="1" source="68" target="102">
                    <mxGeometry width="50" height="50" relative="1" as="geometry">
                        <mxPoint x="2060" y="274" as="sourcePoint"/>
                        <mxPoint x="2110" y="224" as="targetPoint"/>
                    </mxGeometry>
                </mxCell>
                <mxCell id="104" value="" style="edgeStyle=elbowEdgeStyle;elbow=horizontal;endArrow=classic;html=1;exitX=0;exitY=0.5;exitDx=0;exitDy=0;entryX=1;entryY=0.5;entryDx=0;entryDy=0;" edge="1" parent="1" source="91" target="102">
                    <mxGeometry width="50" height="50" relative="1" as="geometry">
                        <mxPoint x="2240.0000000000005" y="251.5" as="sourcePoint"/>
                        <mxPoint x="2260" y="230" as="targetPoint"/>
                        <Array as="points">
                            <mxPoint x="2260" y="230"/>
                        </Array>
                    </mxGeometry>
                </mxCell>
                <mxCell id="105" value="N" style="text;html=1;align=center;verticalAlign=middle;resizable=0;points=[];autosize=1;strokeColor=none;fillColor=none;" vertex="1" parent="1">
                    <mxGeometry x="2100" y="320" width="20" height="20" as="geometry"/>
                </mxCell>
                <mxCell id="106" value="N" style="text;html=1;align=center;verticalAlign=middle;resizable=0;points=[];autosize=1;strokeColor=none;fillColor=none;" vertex="1" parent="1">
                    <mxGeometry x="2290" y="130" width="20" height="20" as="geometry"/>
                </mxCell>
                <mxCell id="107" value="pivot" style="shape=table;startSize=30;container=1;collapsible=0;childLayout=tableLayout;fontStyle=1;align=center;pointerEvents=1;" vertex="1" parent="1">
                    <mxGeometry x="2110" y="-110" width="197" height="280" as="geometry"/>
                </mxCell>
                <mxCell id="108" value="" style="shape=partialRectangle;html=1;whiteSpace=wrap;collapsible=0;dropTarget=0;pointerEvents=0;fillColor=none;top=0;left=0;bottom=0;right=0;points=[[0,0.5],[1,0.5]];portConstraint=eastwest;" vertex="1" parent="107">
                    <mxGeometry y="30" width="197" height="50" as="geometry"/>
                </mxCell>
                <mxCell id="109" value="corsi_id" style="shape=partialRectangle;html=1;whiteSpace=wrap;connectable=0;fillColor=none;top=0;left=0;bottom=0;right=0;overflow=hidden;pointerEvents=1;" vertex="1" parent="108">
                    <mxGeometry width="98" height="50" as="geometry">
                        <mxRectangle width="98" height="50" as="alternateBounds"/>
                    </mxGeometry>
                </mxCell>
                <mxCell id="110" value="insegnanti_ID" style="shape=partialRectangle;html=1;whiteSpace=wrap;connectable=0;fillColor=none;top=0;left=0;bottom=0;right=0;overflow=hidden;pointerEvents=1;" vertex="1" parent="108">
                    <mxGeometry x="98" width="99" height="50" as="geometry">
                        <mxRectangle width="99" height="50" as="alternateBounds"/>
                    </mxGeometry>
                </mxCell>
                <mxCell id="112" value="" style="shape=partialRectangle;html=1;whiteSpace=wrap;collapsible=0;dropTarget=0;pointerEvents=0;fillColor=none;top=0;left=0;bottom=0;right=0;points=[[0,0.5],[1,0.5]];portConstraint=eastwest;" vertex="1" parent="107">
                    <mxGeometry y="80" width="197" height="50" as="geometry"/>
                </mxCell>
                <mxCell id="113" value="1" style="shape=partialRectangle;html=1;whiteSpace=wrap;connectable=0;fillColor=none;top=0;left=0;bottom=0;right=0;overflow=hidden;pointerEvents=1;" vertex="1" parent="112">
                    <mxGeometry width="98" height="50" as="geometry">
                        <mxRectangle width="98" height="50" as="alternateBounds"/>
                    </mxGeometry>
                </mxCell>
                <mxCell id="114" value="2" style="shape=partialRectangle;html=1;whiteSpace=wrap;connectable=0;fillColor=none;top=0;left=0;bottom=0;right=0;overflow=hidden;pointerEvents=1;" vertex="1" parent="112">
                    <mxGeometry x="98" width="99" height="50" as="geometry">
                        <mxRectangle width="99" height="50" as="alternateBounds"/>
                    </mxGeometry>
                </mxCell>
                <mxCell id="116" value="" style="shape=partialRectangle;html=1;whiteSpace=wrap;collapsible=0;dropTarget=0;pointerEvents=0;fillColor=none;top=0;left=0;bottom=0;right=0;points=[[0,0.5],[1,0.5]];portConstraint=eastwest;" vertex="1" parent="107">
                    <mxGeometry y="130" width="197" height="50" as="geometry"/>
                </mxCell>
                <mxCell id="117" value="2" style="shape=partialRectangle;html=1;whiteSpace=wrap;connectable=0;fillColor=none;top=0;left=0;bottom=0;right=0;overflow=hidden;pointerEvents=1;" vertex="1" parent="116">
                    <mxGeometry width="98" height="50" as="geometry">
                        <mxRectangle width="98" height="50" as="alternateBounds"/>
                    </mxGeometry>
                </mxCell>
                <mxCell id="118" value="1" style="shape=partialRectangle;html=1;whiteSpace=wrap;connectable=0;fillColor=none;top=0;left=0;bottom=0;right=0;overflow=hidden;pointerEvents=1;" vertex="1" parent="116">
                    <mxGeometry x="98" width="99" height="50" as="geometry">
                        <mxRectangle width="99" height="50" as="alternateBounds"/>
                    </mxGeometry>
                </mxCell>
                <mxCell id="120" style="shape=partialRectangle;html=1;whiteSpace=wrap;collapsible=0;dropTarget=0;pointerEvents=0;fillColor=none;top=0;left=0;bottom=0;right=0;points=[[0,0.5],[1,0.5]];portConstraint=eastwest;" vertex="1" parent="107">
                    <mxGeometry y="180" width="197" height="50" as="geometry"/>
                </mxCell>
                <mxCell id="121" value="3" style="shape=partialRectangle;html=1;whiteSpace=wrap;connectable=0;fillColor=none;top=0;left=0;bottom=0;right=0;overflow=hidden;pointerEvents=1;" vertex="1" parent="120">
                    <mxGeometry width="98" height="50" as="geometry">
                        <mxRectangle width="98" height="50" as="alternateBounds"/>
                    </mxGeometry>
                </mxCell>
                <mxCell id="122" value="2" style="shape=partialRectangle;html=1;whiteSpace=wrap;connectable=0;fillColor=none;top=0;left=0;bottom=0;right=0;overflow=hidden;pointerEvents=1;" vertex="1" parent="120">
                    <mxGeometry x="98" width="99" height="50" as="geometry">
                        <mxRectangle width="99" height="50" as="alternateBounds"/>
                    </mxGeometry>
                </mxCell>
                <mxCell id="124" style="shape=partialRectangle;html=1;whiteSpace=wrap;collapsible=0;dropTarget=0;pointerEvents=0;fillColor=none;top=0;left=0;bottom=0;right=0;points=[[0,0.5],[1,0.5]];portConstraint=eastwest;" vertex="1" parent="107">
                    <mxGeometry y="230" width="197" height="50" as="geometry"/>
                </mxCell>
                <mxCell id="125" value="3" style="shape=partialRectangle;html=1;whiteSpace=wrap;connectable=0;fillColor=none;top=0;left=0;bottom=0;right=0;overflow=hidden;pointerEvents=1;" vertex="1" parent="124">
                    <mxGeometry width="98" height="50" as="geometry">
                        <mxRectangle width="98" height="50" as="alternateBounds"/>
                    </mxGeometry>
                </mxCell>
                <mxCell id="126" value="1" style="shape=partialRectangle;html=1;whiteSpace=wrap;connectable=0;fillColor=none;top=0;left=0;bottom=0;right=0;overflow=hidden;pointerEvents=1;" vertex="1" parent="124">
                    <mxGeometry x="98" width="99" height="50" as="geometry">
                        <mxRectangle width="99" height="50" as="alternateBounds"/>
                    </mxGeometry>
                </mxCell>
                <mxCell id="128" value="studenti" style="shape=table;startSize=40;container=1;collapsible=0;childLayout=tableLayout;fontStyle=1;align=center;pointerEvents=1;" vertex="1" parent="1">
                    <mxGeometry x="1830" y="590" width="784" height="220" as="geometry"/>
                </mxCell>
                <mxCell id="129" value="" style="shape=partialRectangle;html=1;whiteSpace=wrap;collapsible=0;dropTarget=0;pointerEvents=0;fillColor=none;top=0;left=0;bottom=0;right=0;points=[[0,0.5],[1,0.5]];portConstraint=eastwest;" vertex="1" parent="128">
                    <mxGeometry y="40" width="784" height="60" as="geometry"/>
                </mxCell>
                <mxCell id="130" value="&lt;span&gt;id(int,not null,unique,autoincrement&lt;/span&gt;" style="shape=partialRectangle;html=1;whiteSpace=wrap;connectable=0;fillColor=none;top=0;left=0;bottom=0;right=0;overflow=hidden;pointerEvents=1;" vertex="1" parent="129">
                    <mxGeometry width="157" height="60" as="geometry">
                        <mxRectangle width="157" height="60" as="alternateBounds"/>
                    </mxGeometry>
                </mxCell>
                <mxCell id="131" value="nome (varchar(50), not null)" style="shape=partialRectangle;html=1;whiteSpace=wrap;connectable=0;fillColor=none;top=0;left=0;bottom=0;right=0;overflow=hidden;pointerEvents=1;" vertex="1" parent="129">
                    <mxGeometry x="157" width="156" height="60" as="geometry">
                        <mxRectangle width="156" height="60" as="alternateBounds"/>
                    </mxGeometry>
                </mxCell>
                <mxCell id="132" value="&lt;span&gt;cognome (varchar(50), not null)&lt;/span&gt;" style="shape=partialRectangle;html=1;whiteSpace=wrap;connectable=0;fillColor=none;top=0;left=0;bottom=0;right=0;overflow=hidden;pointerEvents=1;" vertex="1" parent="129">
                    <mxGeometry x="313" width="157" height="60" as="geometry">
                        <mxRectangle width="157" height="60" as="alternateBounds"/>
                    </mxGeometry>
                </mxCell>
                <mxCell id="141" value="&lt;span&gt;email(varchar(50), not null)&lt;/span&gt;" style="shape=partialRectangle;html=1;whiteSpace=wrap;connectable=0;fillColor=none;top=0;left=0;bottom=0;right=0;overflow=hidden;pointerEvents=1;" vertex="1" parent="129">
                    <mxGeometry x="470" width="157" height="60" as="geometry">
                        <mxRectangle width="157" height="60" as="alternateBounds"/>
                    </mxGeometry>
                </mxCell>
                <mxCell id="161" value="corsi_id" style="shape=partialRectangle;html=1;whiteSpace=wrap;connectable=0;fillColor=none;top=0;left=0;bottom=0;right=0;overflow=hidden;pointerEvents=1;" vertex="1" parent="129">
                    <mxGeometry x="627" width="157" height="60" as="geometry">
                        <mxRectangle width="157" height="60" as="alternateBounds"/>
                    </mxGeometry>
                </mxCell>
                <mxCell id="133" value="" style="shape=partialRectangle;html=1;whiteSpace=wrap;collapsible=0;dropTarget=0;pointerEvents=0;fillColor=none;top=0;left=0;bottom=0;right=0;points=[[0,0.5],[1,0.5]];portConstraint=eastwest;" vertex="1" parent="128">
                    <mxGeometry y="100" width="784" height="60" as="geometry"/>
                </mxCell>
                <mxCell id="134" value="1" style="shape=partialRectangle;html=1;whiteSpace=wrap;connectable=0;fillColor=none;top=0;left=0;bottom=0;right=0;overflow=hidden;pointerEvents=1;" vertex="1" parent="133">
                    <mxGeometry width="157" height="60" as="geometry">
                        <mxRectangle width="157" height="60" as="alternateBounds"/>
                    </mxGeometry>
                </mxCell>
                <mxCell id="135" value="aleessandro" style="shape=partialRectangle;html=1;whiteSpace=wrap;connectable=0;fillColor=none;top=0;left=0;bottom=0;right=0;overflow=hidden;pointerEvents=1;" vertex="1" parent="133">
                    <mxGeometry x="157" width="156" height="60" as="geometry">
                        <mxRectangle width="156" height="60" as="alternateBounds"/>
                    </mxGeometry>
                </mxCell>
                <mxCell id="136" value="pinco" style="shape=partialRectangle;html=1;whiteSpace=wrap;connectable=0;fillColor=none;top=0;left=0;bottom=0;right=0;overflow=hidden;pointerEvents=1;" vertex="1" parent="133">
                    <mxGeometry x="313" width="157" height="60" as="geometry">
                        <mxRectangle width="157" height="60" as="alternateBounds"/>
                    </mxGeometry>
                </mxCell>
                <mxCell id="142" value="&lt;span&gt;test@test.it&lt;/span&gt;" style="shape=partialRectangle;html=1;whiteSpace=wrap;connectable=0;fillColor=none;top=0;left=0;bottom=0;right=0;overflow=hidden;pointerEvents=1;" vertex="1" parent="133">
                    <mxGeometry x="470" width="157" height="60" as="geometry">
                        <mxRectangle width="157" height="60" as="alternateBounds"/>
                    </mxGeometry>
                </mxCell>
                <mxCell id="162" value="2" style="shape=partialRectangle;html=1;whiteSpace=wrap;connectable=0;fillColor=none;top=0;left=0;bottom=0;right=0;overflow=hidden;pointerEvents=1;" vertex="1" parent="133">
                    <mxGeometry x="627" width="157" height="60" as="geometry">
                        <mxRectangle width="157" height="60" as="alternateBounds"/>
                    </mxGeometry>
                </mxCell>
                <mxCell id="137" value="" style="shape=partialRectangle;html=1;whiteSpace=wrap;collapsible=0;dropTarget=0;pointerEvents=0;fillColor=none;top=0;left=0;bottom=0;right=0;points=[[0,0.5],[1,0.5]];portConstraint=eastwest;" vertex="1" parent="128">
                    <mxGeometry y="160" width="784" height="60" as="geometry"/>
                </mxCell>
                <mxCell id="138" value="2" style="shape=partialRectangle;html=1;whiteSpace=wrap;connectable=0;fillColor=none;top=0;left=0;bottom=0;right=0;overflow=hidden;pointerEvents=1;" vertex="1" parent="137">
                    <mxGeometry width="157" height="60" as="geometry">
                        <mxRectangle width="157" height="60" as="alternateBounds"/>
                    </mxGeometry>
                </mxCell>
                <mxCell id="139" value="marta" style="shape=partialRectangle;html=1;whiteSpace=wrap;connectable=0;fillColor=none;top=0;left=0;bottom=0;right=0;overflow=hidden;pointerEvents=1;" vertex="1" parent="137">
                    <mxGeometry x="157" width="156" height="60" as="geometry">
                        <mxRectangle width="156" height="60" as="alternateBounds"/>
                    </mxGeometry>
                </mxCell>
                <mxCell id="140" value="angioni" style="shape=partialRectangle;html=1;whiteSpace=wrap;connectable=0;fillColor=none;top=0;left=0;bottom=0;right=0;overflow=hidden;pointerEvents=1;" vertex="1" parent="137">
                    <mxGeometry x="313" width="157" height="60" as="geometry">
                        <mxRectangle width="157" height="60" as="alternateBounds"/>
                    </mxGeometry>
                </mxCell>
                <mxCell id="143" value="&#10;&#10;&lt;span style=&quot;color: rgb(0, 0, 0); font-family: helvetica; font-size: 12px; font-style: normal; font-weight: 400; letter-spacing: normal; text-align: center; text-indent: 0px; text-transform: none; word-spacing: 0px; background-color: rgb(248, 249, 250); display: inline; float: none;&quot;&gt;test@test.it&lt;/span&gt;&#10;&#10;" style="shape=partialRectangle;html=1;whiteSpace=wrap;connectable=0;fillColor=none;top=0;left=0;bottom=0;right=0;overflow=hidden;pointerEvents=1;" vertex="1" parent="137">
                    <mxGeometry x="470" width="157" height="60" as="geometry">
                        <mxRectangle width="157" height="60" as="alternateBounds"/>
                    </mxGeometry>
                </mxCell>
                <mxCell id="163" value="2" style="shape=partialRectangle;html=1;whiteSpace=wrap;connectable=0;fillColor=none;top=0;left=0;bottom=0;right=0;overflow=hidden;pointerEvents=1;" vertex="1" parent="137">
                    <mxGeometry x="627" width="157" height="60" as="geometry">
                        <mxRectangle width="157" height="60" as="alternateBounds"/>
                    </mxGeometry>
                </mxCell>
                <mxCell id="144" value="" style="edgeStyle=segmentEdgeStyle;endArrow=classic;html=1;exitX=0.535;exitY=-0.025;exitDx=0;exitDy=0;exitPerimeter=0;entryX=0;entryY=0.5;entryDx=0;entryDy=0;" edge="1" parent="1" source="2" target="145">
                    <mxGeometry width="50" height="50" relative="1" as="geometry">
                        <mxPoint x="1520" y="470" as="sourcePoint"/>
                        <mxPoint x="1585" y="400" as="targetPoint"/>
                        <Array as="points">
                            <mxPoint x="1520" y="440"/>
                            <mxPoint x="1585" y="440"/>
                            <mxPoint x="1585" y="420"/>
                        </Array>
                    </mxGeometry>
                </mxCell>
                <mxCell id="145" value="" style="rhombus;whiteSpace=wrap;html=1;" vertex="1" parent="1">
                    <mxGeometry x="1610" y="380" width="80" height="80" as="geometry"/>
                </mxCell>
                <mxCell id="146" value="N" style="text;html=1;align=center;verticalAlign=middle;resizable=0;points=[];autosize=1;strokeColor=none;fillColor=none;" vertex="1" parent="1">
                    <mxGeometry x="1440" y="470" width="20" height="20" as="geometry"/>
                </mxCell>
                <mxCell id="147" value="" style="edgeStyle=segmentEdgeStyle;endArrow=classic;html=1;entryX=1;entryY=0.5;entryDx=0;entryDy=0;exitX=0.421;exitY=1.008;exitDx=0;exitDy=0;exitPerimeter=0;" edge="1" parent="1" source="82" target="145">
                    <mxGeometry width="50" height="50" relative="1" as="geometry">
                        <mxPoint x="1750" y="370" as="sourcePoint"/>
                        <mxPoint x="1740" y="330" as="targetPoint"/>
                        <Array as="points">
                            <mxPoint x="1792" y="360"/>
                            <mxPoint x="1690" y="360"/>
                        </Array>
                    </mxGeometry>
                </mxCell>
                <mxCell id="148" value="1" style="text;html=1;align=center;verticalAlign=middle;resizable=0;points=[];autosize=1;strokeColor=none;fillColor=none;" vertex="1" parent="1">
                    <mxGeometry x="1730" y="330" width="20" height="20" as="geometry"/>
                </mxCell>
                <mxCell id="157" value="" style="rhombus;whiteSpace=wrap;html=1;" vertex="1" parent="1">
                    <mxGeometry x="1930" y="400" width="80" height="80" as="geometry"/>
                </mxCell>
                <mxCell id="158" value="" style="edgeStyle=segmentEdgeStyle;endArrow=classic;html=1;exitX=0.5;exitY=1;exitDx=0;exitDy=0;entryX=0.316;entryY=-0.001;entryDx=0;entryDy=0;entryPerimeter=0;" edge="1" parent="1" source="157" target="128">
                    <mxGeometry width="50" height="50" relative="1" as="geometry">
                        <mxPoint x="2052" y="510" as="sourcePoint"/>
                        <mxPoint x="1950" y="570" as="targetPoint"/>
                        <Array as="points">
                            <mxPoint x="2052" y="480"/>
                            <mxPoint x="2052" y="530"/>
                            <mxPoint x="1950" y="530"/>
                            <mxPoint x="1950" y="590"/>
                        </Array>
                    </mxGeometry>
                </mxCell>
                <mxCell id="160" value="" style="edgeStyle=segmentEdgeStyle;endArrow=classic;html=1;entryX=0.5;entryY=0;entryDx=0;entryDy=0;exitX=0.751;exitY=1.081;exitDx=0;exitDy=0;exitPerimeter=0;" edge="1" parent="1" source="82" target="157">
                    <mxGeometry width="50" height="50" relative="1" as="geometry">
                        <mxPoint x="2062.08" y="339.99600000000015" as="sourcePoint"/>
                        <mxPoint x="1960" y="442.54" as="targetPoint"/>
                        <Array as="points">
                            <mxPoint x="2062" y="322"/>
                            <mxPoint x="2062" y="390"/>
                        </Array>
                    </mxGeometry>
                </mxCell>
            </root>
        </mxGraphModel>
    </diagram>
</mxfile>